<?xml version="1.0" encoding="UTF-8"?>
<svg version="1.1" xmlns="http://www.w3.org/2000/svg" width="750" height="750">
<path d="M0 0 C1.58951057 -0.00330292 3.17902031 -0.00702938 4.768529 -0.01114148 C9.12600077 -0.02112168 13.48345878 -0.02487186 17.84094036 -0.02753079 C22.54548591 -0.03144591 27.25002069 -0.04102363 31.95455933 -0.04974365 C43.31370043 -0.06947792 54.67284238 -0.07957213 66.03199634 -0.08847144 C71.39079317 -0.09286085 76.74958903 -0.0982261 82.10838509 -0.10346031 C99.94049213 -0.12047242 117.77259858 -0.13496309 135.60471249 -0.14220905 C140.22911518 -0.14411874 144.85351786 -0.1460391 149.47792053 -0.147995 C151.20183567 -0.14872061 151.20183567 -0.14872061 152.96057738 -0.14946087 C171.54740719 -0.15774806 190.13417238 -0.18306286 208.72097402 -0.21557567 C227.83550904 -0.24873682 246.95001134 -0.26666612 266.06457525 -0.26985329 C276.783579 -0.27201043 287.5024886 -0.28064133 298.22146416 -0.30631447 C307.35722796 -0.32814584 316.49287475 -0.33601144 325.62866168 -0.32634769 C330.27989295 -0.3218382 334.93088345 -0.32349057 339.58208084 -0.34310913 C399.6163029 -0.58200159 451.4355862 16.23442362 495.47621155 58.14717102 C496.18132874 58.79943665 496.88644592 59.45170227 497.6129303 60.12373352 C530.29218909 91.27840215 551.51444477 140.25205042 553.66349661 185.05132794 C553.73446388 189.21537089 553.74826018 193.37523281 553.73690796 197.53965759 C553.73993628 199.13806122 553.74382914 200.7364634 553.74850053 202.33486307 C553.75870195 206.68426603 553.75661895 211.03358583 553.75231993 215.38299537 C553.74983825 220.09075269 553.75888476 224.79849073 553.76635742 229.50624084 C553.77906737 238.71351029 553.78090268 247.92075053 553.77855716 257.12802728 C553.77676939 264.61843459 553.77853345 272.10883309 553.7827816 279.59923935 C553.78337679 280.66798398 553.78397198 281.73672861 553.7845852 282.83785944 C553.78579704 285.00951208 553.78701118 287.18116471 553.78822758 289.35281734 C553.79908922 309.69205799 553.79694737 330.03128204 553.79084273 350.37052362 C553.78567694 368.94020112 553.79692257 387.50982612 553.81594095 406.07949324 C553.83535699 425.18519413 553.84356862 444.29087024 553.8398177 463.39658105 C553.83791109 474.10750518 553.84034017 484.81838465 553.85453224 495.52930069 C553.86649525 504.64963049 553.86779624 513.76988816 553.85574207 522.89021905 C553.84988724 527.53488292 553.84865876 532.17941517 553.86074448 536.82406998 C553.9135481 558.59013653 553.93206616 580.03730761 547.78871155 601.14717102 C547.53307434 602.04685608 547.27743713 602.94654114 547.01405334 603.87348938 C536.8753733 638.54445097 519.0706407 666.9660045 494.47621155 693.14717102 C493.89484436 693.78267883 493.31347717 694.41818665 492.7144928 695.07295227 C462.42323151 727.0428225 413.31232612 748.18219731 369.6555016 750.33563304 C365.48518649 750.40872747 361.31898124 750.42395396 357.14823914 750.41459656 C355.54458669 750.4183418 353.94093606 750.42294678 352.33728826 750.4283272 C347.96861879 750.4404651 343.60002643 750.4403077 339.23134398 750.43793845 C334.50442202 750.43752792 329.77752401 750.44859198 325.0506134 750.45805359 C315.80276615 750.47461503 306.55494441 750.48016097 297.30708356 750.48127834 C289.78187605 750.48223134 282.25667689 750.48635416 274.73147202 750.4926796 C253.35412168 750.51028049 231.97679137 750.51952053 210.59943374 750.51801865 C208.87337283 750.51789878 208.87337283 750.51789878 207.11244202 750.51777649 C205.96031473 750.51769473 204.80818744 750.51761297 203.6211472 750.51752873 C184.96935417 750.51671665 166.31764205 750.53583756 147.66587241 750.56405322 C128.47317695 750.59285589 109.28052084 750.6065894 90.08780324 750.60486567 C79.32924376 750.60420421 68.57076906 750.60958879 57.81222916 750.63122177 C48.64839562 750.64953123 39.48468528 750.65370158 30.32084127 750.64020292 C25.65552061 750.63372154 20.99043559 750.63337854 16.32513809 750.65090942 C-42.13810443 750.85660662 -94.19112037 734.56558321 -137.1268158 693.4811554 C-138.31810091 692.34358429 -139.5230861 691.22038878 -140.7308197 690.10029602 C-172.966524 659.37461453 -194.53906145 610.60450007 -196.71107352 566.32949054 C-196.78244375 562.1640608 -196.79578721 558.00279632 -196.78448486 553.8369751 C-196.78751235 552.23530973 -196.79140479 550.6336458 -196.79607743 549.03198439 C-196.80628973 544.66892062 -196.80419301 540.30593965 -196.79989684 535.94286931 C-196.79741714 531.22214269 -196.80645926 526.50143536 -196.81393433 521.78071594 C-196.82665008 512.54590383 -196.82847883 503.31112084 -196.82613406 494.07630145 C-196.82434682 486.56346366 -196.82610923 479.05063467 -196.83035851 471.53779793 C-196.83095369 470.46614245 -196.83154888 469.39448696 -196.83216211 468.29035707 C-196.83337394 466.1128259 -196.83458808 463.93529474 -196.83580448 461.75776357 C-196.84666852 441.35891573 -196.84452323 420.96008444 -196.83841964 400.56123567 C-196.83325455 381.93652918 -196.84449719 363.31187505 -196.86351786 344.6871789 C-196.88293384 325.52726908 -196.89114548 306.36738399 -196.88739461 287.20746428 C-196.88548787 276.46522617 -196.88791824 265.72303258 -196.90210915 254.98080254 C-196.91407213 245.83300021 -196.91537323 236.6852698 -196.90331898 227.5374664 C-196.89746391 222.87863276 -196.89623629 218.21993033 -196.90832138 213.56110573 C-196.96103467 191.76488229 -196.98819868 170.28643331 -190.83628845 149.14717102 C-190.45283264 147.79764343 -190.45283264 147.79764343 -190.06163025 146.42085266 C-183.58276216 124.265248 -174.2158888 102.83755266 -160.52378845 84.14717102 C-159.76710876 83.10689758 -159.01042908 82.06662415 -158.2308197 80.99482727 C-152.5908213 73.38894494 -146.40085159 66.3820541 -139.85777283 59.54414368 C-138.72020172 58.35285856 -137.59700621 57.14787338 -136.47691345 55.94013977 C-122.71912182 41.50621735 -105.04677115 30.39285582 -87.52378845 21.14717102 C-86.40101501 20.55162415 -85.27824158 19.95607727 -84.1214447 19.34248352 C-65.15180465 9.91198663 -44.47362128 3.97950165 -23.52378845 1.14717102 C-22.4724192 0.97823743 -21.42104994 0.80930384 -20.33782101 0.63525105 C-13.59410601 -0.19641464 -6.78352953 -0.00127787 0 0 Z " fill="#000000" transform="translate(196.52378845214844,-0.1471710205078125)"/>
<path d="M0 0 C3.07605465 1.78882549 5.51712018 4.19161375 8.05078125 6.65625 C12.0425802 10.44672538 16.04936318 14.10339906 20.36328125 17.53125 C26.3800209 22.35873657 31.93359028 27.63895464 37.54296875 32.92578125 C40.67347102 35.87357265 43.86612627 38.73377933 47.125 41.5390625 C49.31756269 43.44204144 51.46382472 45.39222404 53.61328125 47.34375 C56.5138875 49.96725673 59.43906401 52.55278566 62.421875 55.08203125 C63.02241699 55.59161377 63.62295898 56.10119629 64.24169922 56.6262207 C65.40044263 57.60622677 66.56198036 58.58294416 67.72705078 59.55541992 C68.8329135 60.49054105 69.92647123 61.44042981 71.00653934 62.40522861 C72.40043458 63.63684226 73.82555624 64.83356453 75.27168179 66.00340939 C79.76401861 69.93901283 82.52454684 72.81663086 83.0705719 78.90809631 C83.09640597 81.09500284 83.07329403 83.28285081 83.01000977 85.46899414 C83.01132401 86.66999756 83.01263824 87.87100098 83.01399231 89.10839844 C83.00882518 92.37570695 82.96396181 95.63946671 82.90082669 98.90607381 C82.84425081 102.32918579 82.83925388 105.75238068 82.82859802 109.17588806 C82.80071515 115.64674827 82.72698802 122.11622665 82.63645262 128.58648056 C82.53556927 135.95757426 82.48630081 143.32873683 82.4411937 150.70034993 C82.34732623 165.85308423 82.18920541 181.00452839 81.98828125 196.15625 C83.42199082 195.2068449 84.85485012 194.25615569 86.28735352 193.30493164 C87.0853688 192.77565567 87.88338409 192.2463797 88.70558167 191.70106506 C91.54481277 189.77961775 94.25157068 187.7384899 96.92578125 185.59375 C97.84230469 184.87058594 98.75882812 184.14742187 99.703125 183.40234375 C105.20595888 177.99357541 104.86148522 170.12293828 105.58007812 162.81640625 C106.11485371 158.40685321 106.45892706 155.82452562 109.265625 152.28125 C110.16410156 151.58 111.06257813 150.87875 111.98828125 150.15625 C112.8184375 149.4240625 113.64859375 148.691875 114.50390625 147.9375 C121.02989304 142.49296245 127.69691422 137.27290904 134.46850586 132.13720703 C140.10692636 127.85446196 145.65605203 123.47087072 151.16723633 119.02587891 C152.77129075 117.73232279 154.37958294 116.44402628 155.98828125 115.15625 C156.66632813 114.5478125 157.344375 113.939375 158.04296875 113.3125 C162.16665928 110.86147109 167.46641476 112.36035433 171.98828125 113.15625 C174.52221699 113.96423285 176.62190001 114.91927799 178.98828125 116.15625 C179.15534007 124.2625803 178.61309616 132.24411256 177.87133789 140.30786133 C177.6746682 142.48104915 177.49643586 144.65529766 177.31835938 146.83007812 C177.19253366 148.22666453 177.06561936 149.62315339 176.9375 151.01953125 C176.82752686 152.27032471 176.71755371 153.52111816 176.60424805 154.80981445 C175.37647398 161.48008757 171.54116312 164.67547358 166.36328125 168.65625 C165.70593994 169.17179443 165.04859863 169.68733887 164.37133789 170.21850586 C162.25171881 171.87513647 160.12190332 173.51770131 157.98828125 175.15625 C157.28203613 175.69910645 156.57579102 176.24196289 155.84814453 176.80126953 C152.27698135 179.54185375 148.69856686 182.27278614 145.1171875 185 C135.83121998 192.08240807 126.70665756 199.36888677 117.59545898 206.67382812 C110.52444108 212.33870372 103.3918294 217.9243351 96.25878906 223.51074219 C89.64264686 228.69394665 83.04558231 233.89872388 76.48828125 239.15625 C66.75827175 246.95568199 57.01349872 254.73758907 46.98828125 262.15625 C48.50204206 265.72389285 50.59341254 267.99331287 53.33984375 270.703125 C54.190625 271.54746094 55.04140625 272.39179688 55.91796875 273.26171875 C57.25214844 274.57076172 57.25214844 274.57076172 58.61328125 275.90625 C59.9590625 277.23849609 59.9590625 277.23849609 61.33203125 278.59765625 C63.54635129 280.78841969 65.7652056 282.97437763 67.98828125 285.15625 C70.8844892 283.81849486 73.20310759 282.30251036 75.640625 280.25 C76.32761475 279.67636719 77.01460449 279.10273438 77.72241211 278.51171875 C78.44952393 277.89941406 79.17663574 277.28710938 79.92578125 276.65625 C86.57753278 271.11653199 93.31716305 265.75760559 100.20849609 260.51806641 C103.73743986 257.81786773 107.23465171 255.07665551 110.73828125 252.34375 C118.80546311 246.05883263 126.9214594 239.83978653 135.05126953 233.63623047 C137.95181329 231.42006003 140.84557216 229.19513122 143.73828125 226.96875 C144.76308594 226.18113281 145.78789063 225.39351562 146.84375 224.58203125 C149.08063939 222.85643087 151.31215002 221.12507698 153.5390625 219.38671875 C154.12655273 218.92998779 154.71404297 218.47325684 155.31933594 218.00268555 C156.44068618 217.13068236 157.55996839 216.25601056 158.67675781 215.37817383 C164.32189744 210.99699211 167.80440383 209.87131028 174.95703125 210.03515625 C176.58332303 210.05568321 178.20962593 210.07534414 179.8359375 210.09423828 C181.1055835 210.11275848 181.1055835 210.11275848 182.40087891 210.13165283 C185.79805914 210.16394816 189.19263971 210.12309669 192.58959961 210.0821228 C196.02230506 210.05051009 199.45398781 210.06674932 202.88671875 210.08911133 C204.63546236 210.0922294 206.38430483 210.07894311 208.1328125 210.05004883 C224.59845027 209.79849047 224.59845027 209.79849047 230.76953125 215.22265625 C232.23062184 216.81866263 233.63073141 218.47129287 234.98828125 220.15625 C240.22681884 226.36830485 245.84174118 232.12786137 251.61328125 237.84375 C252.51900879 238.74569092 253.42473633 239.64763184 254.35791016 240.5769043 C257.23227694 243.43913564 260.10975065 246.29820802 262.98828125 249.15625 C266.78303463 252.92399333 270.57409506 256.69540545 274.36328125 260.46875 C275.2238916 261.32106201 276.08450195 262.17337402 276.97119141 263.05151367 C280.56005043 266.62587582 284.0853806 270.20009809 287.37939453 274.04956055 C291.58806109 278.94489787 296.18496699 283.44916085 300.77242661 287.98499489 C302.38912657 289.58407219 304.00205808 291.18686683 305.61404419 292.79069519 C310.19151907 297.34389969 314.77483324 301.89119436 319.36230469 306.43432617 C322.18211282 309.22739104 324.99706116 312.02527755 327.80905533 314.82620811 C328.87810337 315.88904997 329.94904496 316.94999075 331.02190781 318.0089817 C332.51509719 319.4830037 334.0020692 320.96303901 335.48779297 322.44458008 C336.33493866 323.28426834 337.18208435 324.1239566 338.05490112 324.98908997 C339.98828125 327.15625 339.98828125 327.15625 340.98828125 330.15625 C332.34778508 339.53210754 323.57394448 348.73475169 314.47998047 357.67285156 C313.49004135 358.65728202 312.51223509 359.65407395 311.54736328 360.66308594 C310.39594667 361.86204003 309.1961496 363.01418819 307.98828125 364.15625 C307.32828125 364.15625 306.66828125 364.15625 305.98828125 364.15625 C305.76735306 364.70249527 305.54642487 365.24874054 305.31880188 365.8115387 C303.56623096 368.90000854 301.20743154 371.19960138 298.69995117 373.67163086 C298.16149063 374.21038345 297.62303009 374.74913605 297.06825256 375.30421448 C295.28978538 377.08129033 293.50433857 378.85117591 291.71875 380.62109375 C290.47761591 381.85849447 289.23692505 383.09633989 287.99665833 384.33460999 C284.72981093 387.59382539 281.45700836 390.84699643 278.18292236 394.09893799 C274.86381515 397.39765719 271.55028901 400.70197151 268.23632812 404.00585938 C262.87532942 409.34929392 257.51098115 414.68933716 252.14199829 420.02474976 C246.65010883 425.42737807 246.65010883 425.42737807 241.30078125 430.96875 C239.98828125 432.15625 239.98828125 432.15625 237.98828125 432.15625 C237.98828125 432.81625 237.98828125 433.47625 237.98828125 434.15625 C237.32828125 434.15625 236.66828125 434.15625 235.98828125 434.15625 C235.72917969 434.74148438 235.47007812 435.32671875 235.203125 435.9296875 C233.90209838 438.31420574 232.48957119 439.88832391 230.55078125 441.78125 C229.95394531 442.37164062 229.35710938 442.96203125 228.7421875 443.5703125 C225.19100262 446.78140618 223.01288431 447.42426494 218.33032227 447.54199219 C217.16803604 447.57411804 216.00574982 447.6062439 214.8082428 447.63934326 C209.46760307 447.72860698 204.12755025 447.81132055 198.78637695 447.85644531 C195.97741405 447.88299154 193.17140473 447.93841328 190.36352539 448.02050781 C163.32716472 448.79355798 163.32716472 448.79355798 156.49609375 442.4375 C154.9424604 440.72195066 153.4305693 438.96641334 151.98828125 437.15625 C150.14510248 435.54376234 150.14510248 435.54376234 148.3515625 434.265625 C141.97391175 429.33335732 135.69709945 424.29956298 129.48828125 419.15625 C123.79768651 414.4438258 118.05722749 409.81224826 112.22875977 405.27172852 C107.74507718 401.77175347 103.32989163 398.19315744 98.92578125 394.59375 C92.97328233 389.73465489 86.95961926 384.97490243 80.83984375 380.328125 C79.04791777 378.96331562 77.26953407 377.58034532 75.51171875 376.171875 C74.80273438 375.60984375 74.09375 375.0478125 73.36328125 374.46875 C72.77289063 373.99050781 72.1825 373.51226562 71.57421875 373.01953125 C71.05085938 372.73464844 70.5275 372.44976562 69.98828125 372.15625 C66.73927408 373.23925239 66.24121513 373.78784369 64.17578125 376.34375 C58.54174471 383.0143517 52.19573753 389.0262793 45.98828125 395.15625 C49.56496211 398.87280106 53.33715536 402.13296197 57.42578125 405.28125 C58.67454928 406.25251402 59.92324518 407.2238708 61.171875 408.1953125 C61.80593262 408.68676758 62.43999023 409.17822266 63.09326172 409.68457031 C66.06865166 411.99526995 69.0279815 414.32627229 71.98828125 416.65625 C73.15486309 417.57302461 74.32152997 418.48969103 75.48828125 419.40625 C82.48828125 424.90625 82.48828125 424.90625 84.23657227 426.2800293 C85.40877758 427.20096607 86.58114208 428.12170027 87.75366211 429.04223633 C90.58689759 431.2669759 93.41771784 433.49460799 96.2421875 435.73046875 C109.57013031 446.26787354 122.9917301 456.71516749 136.8828125 466.50244141 C144.41563347 471.83373757 151.69620488 477.50259396 158.98828125 483.15625 C159.67116211 483.68524902 160.35404297 484.21424805 161.05761719 484.75927734 C162.99554642 486.26316674 164.93028216 487.77103067 166.86328125 489.28125 C167.44013672 489.73040771 168.01699219 490.17956543 168.61132812 490.64233398 C170.0827195 491.79801518 171.53655966 492.97595511 172.98828125 494.15625 C173.5205835 494.54006836 174.05288574 494.92388672 174.60131836 495.31933594 C176.75797228 498.17564012 176.69730053 501.33074017 176.9375 504.7890625 C176.99984329 505.54033417 177.06218658 506.29160583 177.12641907 507.06564331 C177.25606764 508.65719057 177.37921264 510.24927903 177.49633789 511.84179688 C177.67367076 514.25255878 177.86908781 516.6612748 178.06835938 519.0703125 C178.66188628 526.43785646 179.16764812 533.75950181 178.98828125 541.15625 C172.9974639 544.66031298 167.04886185 547.48541137 159.98828125 546.15625 C155.48643797 543.33167821 151.82275516 539.79874078 147.98828125 536.15625 C146.42135333 534.86524315 144.83870502 533.592992 143.23828125 532.34375 C138.79643863 528.81176869 134.38961131 525.23845498 129.98828125 521.65625 C120.24000637 513.3582759 120.24000637 513.3582759 109.92773438 505.83789062 C107.55645814 503.78182935 107.34797034 502.73205766 106.94140625 499.6640625 C106.81894531 498.79394531 106.69648438 497.92382812 106.5703125 497.02734375 C106.40595703 495.66802734 106.40595703 495.66802734 106.23828125 494.28125 C106.11324219 493.38277344 105.98820312 492.48429687 105.859375 491.55859375 C105.2985942 487.3866311 104.92661486 483.37105412 104.98828125 479.15625 C104.43785156 478.90488281 103.88742187 478.65351562 103.3203125 478.39453125 C100.57047027 476.93439727 98.17877977 475.19533165 95.67578125 473.34375 C92.56528794 471.04970572 89.45068285 468.76477364 86.30395508 466.52075195 C85.68087967 466.07625198 85.05780426 465.63175201 84.41584778 465.17378235 C83.94475082 464.83799667 83.47365387 464.502211 82.98828125 464.15625 C83.00026456 464.7678683 83.01224787 465.3794866 83.02459431 466.00963879 C83.31262912 480.94325932 83.5272611 495.87630053 83.66183949 510.81201458 C83.72866526 518.03528242 83.81963396 525.25668806 83.96899414 532.47875977 C84.09923153 538.77922394 84.18258911 545.07833906 84.21143168 551.38011199 C84.22828022 554.71361407 84.2743259 558.04022689 84.36277199 561.3730526 C84.94803374 584.35169477 84.94803374 584.35169477 78.65320873 591.32842731 C76.41414067 593.41305992 74.09483267 595.27169655 71.59061241 597.02750587 C69.45469737 598.53212715 67.55878901 600.25788422 65.63085938 602.01757812 C65.01476807 602.54230713 64.39867676 603.06703613 63.76391602 603.60766602 C60.5918917 606.37408293 57.66164468 609.38030422 54.70703125 612.375 C54.04924683 613.03657104 53.3914624 613.69814209 52.71374512 614.37976074 C50.63610851 616.46947735 48.56177498 618.56242315 46.48828125 620.65625 C43.75169975 623.419667 41.01165862 626.17958722 38.26953125 628.9375 C37.65783081 629.55749878 37.04613037 630.17749756 36.41589355 630.81628418 C32.69932005 634.55351792 28.84998666 638.06454728 24.86193848 641.50967407 C22.26306256 643.79357449 19.83413768 646.19821585 17.39453125 648.65234375 C16.91753784 649.13075211 16.44054443 649.60916046 15.94909668 650.10206604 C14.4597443 651.59691514 12.97394976 653.09524059 11.48828125 654.59375 C10.46507986 655.6219798 9.44164392 656.64997626 8.41796875 657.67773438 C5.93870126 660.16789338 3.46260587 662.66117833 0.98828125 665.15625 C-3.39373239 663.74842719 -5.83743102 661.67182885 -9.03125 658.39453125 C-9.49351486 657.92564987 -9.95577972 657.45676849 -10.43205261 656.97367859 C-11.90343658 655.47901878 -13.3642837 653.97458736 -14.82421875 652.46875 C-20.46136358 646.6939068 -26.07296115 640.96607381 -32.2175293 635.72338867 C-35.12952137 633.17990287 -37.81109753 630.42023869 -40.51171875 627.65625 C-44.53962306 623.5775204 -48.6143165 619.67050254 -52.98828125 615.9609375 C-56.10809971 613.17839671 -59.00905568 610.17940975 -61.94360352 607.20483398 C-64.57008733 604.55648937 -67.23891742 602.01664386 -70.07421875 599.59375 C-70.65647217 599.07514404 -71.23872559 598.55653809 -71.83862305 598.0222168 C-74.02272431 596.09466138 -74.02272431 596.09466138 -76.55957031 594.31201172 C-80.78338399 590.87035699 -84.05886741 587.71647689 -84.83764648 582.17895508 C-85.18340202 577.06274629 -84.92082704 571.96042574 -84.69921875 566.84375 C-84.65112784 564.86006222 -84.60834507 562.8762401 -84.5703125 560.89233398 C-84.47701587 556.34559558 -84.35544323 551.80055973 -84.22021484 547.25488281 C-83.956737 537.81445848 -83.85315673 528.37301618 -83.75 518.9296875 C-83.73038704 517.16626457 -83.71074897 515.40284192 -83.69108582 513.63941956 C-83.66154906 510.98577302 -83.6320677 508.33212604 -83.60290432 505.67847538 C-83.49792422 496.23459861 -83.36603723 486.79113615 -83.23046875 477.34765625 C-83.21933359 476.56800381 -83.20819843 475.78835136 -83.19672585 474.98507309 C-83.13564016 470.70879017 -83.07399216 466.43251581 -83.01171875 462.15625 C-83.95635986 462.83969482 -84.90100098 463.52313965 -85.87426758 464.22729492 C-87.13483186 465.13473696 -88.3954981 466.0420374 -89.65625 466.94921875 C-90.27632935 467.39841675 -90.89640869 467.84761475 -91.53527832 468.3104248 C-95.15734096 470.91188654 -98.82354473 473.2526384 -102.69921875 475.46875 C-107.89305892 479.56601835 -108.25018716 484.61797854 -109.01171875 490.84375 C-109.18695964 492.68019159 -109.35399298 494.51744001 -109.51171875 496.35546875 C-109.9916375 501.55541317 -110.46130527 504.76723603 -114.48828125 508.375 C-115.52726563 509.1278125 -116.56625 509.880625 -117.63671875 510.65625 C-118.81939647 511.53027239 -120.00030614 512.40669092 -121.1796875 513.28515625 C-121.80407715 513.74809082 -122.4284668 514.21102539 -123.07177734 514.68798828 C-126.43620518 517.23438508 -129.68767307 519.91770119 -132.94921875 522.59375 C-139.23081563 527.72616371 -145.54396525 532.81038244 -151.97265625 537.7578125 C-154.93999991 540.03012802 -154.93999991 540.03012802 -157.23828125 542.2421875 C-160.23320628 544.96596705 -161.84272043 546.16393067 -165.984375 546.13671875 C-170.94372224 545.39552834 -175.3977786 544.11316794 -180.01171875 542.15625 C-180.86560424 536.5527493 -181.0340604 531.49324632 -180.5234375 525.859375 C-180.46017776 525.1033197 -180.39691803 524.3472644 -180.33174133 523.56829834 C-180.19702657 521.98479356 -180.05815818 520.40163703 -179.9152832 518.81884766 C-179.69862845 516.3996587 -179.49986003 513.97944373 -179.30273438 511.55859375 C-179.16903298 510.01292841 -179.03430346 508.46735158 -178.8984375 506.921875 C-178.81078377 505.84211395 -178.81078377 505.84211395 -178.72135925 504.74053955 C-178.29315085 500.16537921 -177.83525429 496.87308182 -174.43041992 493.66748047 C-173.81142822 493.20744629 -173.19243652 492.74741211 -172.5546875 492.2734375 C-171.86109131 491.75128662 -171.16749512 491.22913574 -170.45288086 490.69116211 C-169.70917236 490.14339111 -168.96546387 489.59562012 -168.19921875 489.03125 C-166.64175054 487.86351667 -165.08446039 486.69554584 -163.52734375 485.52734375 C-162.75712891 484.9535498 -161.98691406 484.37975586 -161.19335938 483.78857422 C-158.25327614 481.58877605 -155.35141432 479.34331617 -152.44921875 477.09375 C-147.77120938 473.48947728 -143.05676926 469.93848668 -138.32421875 466.40625 C-131.62978819 461.40798025 -125.02641902 456.30005603 -118.44262695 451.15722656 C-114.32937466 447.94770732 -110.19686565 444.77198781 -106.01171875 441.65625 C-94.43695131 433.02313616 -83.10022369 424.09383349 -71.93969727 414.93310547 C-66.46448135 410.46480215 -60.84376918 406.21017258 -55.14990234 402.02490234 C-54.52035645 401.56035645 -53.89081055 401.09581055 -53.2421875 400.6171875 C-52.68942139 400.21290527 -52.13665527 399.80862305 -51.56713867 399.39208984 C-49.92134892 398.08444776 -48.46977509 396.66832874 -47.01171875 395.15625 C-47.53080811 394.63716064 -48.04989746 394.11807129 -48.5847168 393.58325195 C-55.72705078 386.44091797 -62.86938477 379.29858398 -70.01171875 372.15625 C-72.79995908 373.46748276 -75.19031666 374.92891558 -77.62890625 376.80859375 C-78.31106201 377.33211426 -78.99321777 377.85563477 -79.69604492 378.39501953 C-80.41896729 378.95560059 -81.14188965 379.51618164 -81.88671875 380.09375 C-82.64122314 380.67495605 -83.39572754 381.25616211 -84.1730957 381.85498047 C-90.57911719 386.79825213 -96.94713952 391.78942298 -103.296875 396.8046875 C-105.06320968 398.19683283 -106.83372382 399.58349803 -108.60546875 400.96875 C-114.94703712 405.92951377 -121.23574434 410.94211358 -127.453125 416.05859375 C-129.8539453 418.02689986 -132.27146413 419.97131745 -134.69921875 421.90625 C-139.81111404 425.98272152 -144.8834592 430.10703535 -149.9519043 434.23730469 C-151.22614045 435.27470174 -152.50705057 436.30396288 -153.79496765 437.32432556 C-156.04341903 439.13466045 -156.04341903 439.13466045 -158.12112427 441.19172668 C-165.03385273 447.52297502 -170.50398464 448.37516459 -179.69140625 448.32421875 C-180.98055939 448.33898758 -182.26971252 448.35375641 -183.59793091 448.36897278 C-186.31322457 448.39414072 -189.02642503 448.38933286 -191.74169922 448.36401367 C-194.50376398 448.34097611 -197.25957707 448.36176432 -200.02099609 448.42553711 C-225.75426358 449.0141911 -225.75426358 449.0141911 -232.62109375 442.85546875 C-233.91995175 441.28976553 -235.21430867 439.71864596 -236.44061279 438.0954895 C-239.83483786 433.90594691 -243.87430959 430.27447497 -247.72265625 426.5078125 C-249.48225263 424.74656727 -251.23872716 422.98219799 -252.9921875 421.21484375 C-253.87825684 420.32265137 -254.76432617 419.43045898 -255.67724609 418.51123047 C-257.01843506 417.15989014 -257.01843506 417.15989014 -258.38671875 415.78125 C-261.95410522 412.18717961 -265.52486204 408.59650628 -269.09765625 405.0078125 C-269.90399506 404.19317535 -270.71033386 403.37853821 -271.54110718 402.53921509 C-275.54934299 398.51359571 -279.59220632 394.72407905 -284.01171875 391.15625 C-285.69758788 389.50900963 -287.36239889 387.84008478 -289.01171875 386.15625 C-290.26642192 384.92133818 -291.52309377 383.68842482 -292.78125 382.45703125 C-294.12899517 381.12769431 -295.47664971 379.79826548 -296.82421875 378.46875 C-297.51708984 377.79263672 -298.20996094 377.11652344 -298.92382812 376.41992188 C-299.57802734 375.77216797 -300.23222656 375.12441406 -300.90625 374.45703125 C-301.80114136 373.57785034 -301.80114136 373.57785034 -302.71411133 372.6809082 C-304.01171875 371.15625 -304.01171875 371.15625 -304.01171875 369.15625 C-304.85283203 368.80433594 -304.85283203 368.80433594 -305.7109375 368.4453125 C-308.57196919 366.84235756 -310.52576675 364.8695177 -312.82421875 362.53125 C-313.63503906 361.71398437 -314.44585937 360.89671875 -315.28125 360.0546875 C-317.32337198 357.88694143 -319.27658216 355.70212637 -321.21484375 353.4453125 C-325.55703133 348.44621929 -330.24596517 343.81300754 -334.94921875 339.15625 C-335.82384766 338.28613281 -336.69847656 337.41601562 -337.59960938 336.51953125 C-339.73469324 334.39611451 -341.8720908 332.27508622 -344.01171875 330.15625 C-342.47423852 326.57376344 -340.33367413 324.14119937 -337.6678009 321.31611633 C-337.2240006 320.84379568 -336.78020029 320.37147502 -336.3229515 319.88484162 C-334.8358861 318.30560444 -333.34166087 316.73335262 -331.84692383 315.16137695 C-330.77677076 314.02955673 -329.70676719 312.89759514 -328.63690186 311.76550293 C-318.81058234 301.38888127 -308.86406694 291.12739966 -298.88571644 280.89712238 C-292.19309058 274.03147403 -285.54032306 267.1351074 -278.97729492 260.14526367 C-273.23754543 254.03230667 -267.43103378 247.99251758 -261.53861922 242.026447 C-258.43042217 238.87496716 -255.36199285 235.70105378 -252.37159157 232.43725014 C-241.18498946 220.27161668 -231.49872722 210.39208443 -214.31811136 209.2470631 C-206.91096248 208.96388726 -199.55355088 209.35993316 -192.16892052 209.91760826 C-187.56645967 210.23695676 -183.0880067 209.9753718 -178.50074482 209.50681019 C-171.20589783 208.8287103 -166.43517417 209.84253803 -160.55883789 214.30004883 C-157.85738144 216.58460789 -155.30365491 218.98953597 -152.78027344 221.46826172 C-150.21723549 223.91454062 -147.47643972 225.97281127 -144.63671875 228.09375 C-143.59644531 228.8878125 -142.55617187 229.681875 -141.484375 230.5 C-140.66090576 231.12841797 -140.66090576 231.12841797 -139.82080078 231.76953125 C-129.04848809 240.02685056 -118.37875854 248.41981914 -107.71484375 256.81640625 C-105.94009715 258.21259451 -104.16362979 259.60656762 -102.38671875 261 C-99.45348143 263.30033148 -96.52265769 265.60369445 -93.59423828 267.91015625 C-92.13924728 269.05583259 -90.68296643 270.19987034 -89.2265625 271.34375 C-83.64512797 275.76058845 -78.28055517 280.37102658 -73.01171875 285.15625 C-69.4440759 283.64248919 -67.17465588 281.55111871 -64.46484375 278.8046875 C-63.62050781 277.95390625 -62.77617187 277.103125 -61.90625 276.2265625 C-60.59720703 274.89238281 -60.59720703 274.89238281 -59.26171875 273.53125 C-57.92947266 272.18546875 -57.92947266 272.18546875 -56.5703125 270.8125 C-54.37954906 268.59817996 -52.19359112 266.37932565 -50.01171875 264.15625 C-51.17710022 260.6601056 -52.1413668 260.03770979 -55.0390625 257.8828125 C-55.85487793 257.26825195 -56.67069336 256.65369141 -57.51123047 256.02050781 C-58.3363916 255.40530273 -59.16155273 254.79009766 -60.01171875 254.15625 C-61.43211712 253.0630454 -62.85018113 251.96679948 -64.265625 250.8671875 C-64.9666333 250.32481445 -65.6676416 249.78244141 -66.38989258 249.22363281 C-73.77916185 243.49853897 -81.08845121 237.69081579 -88.32250977 231.77099609 C-92.33530619 228.49493769 -96.39250846 225.29759118 -100.51171875 222.15625 C-106.10008489 217.89417101 -111.55800388 213.48985701 -117 209.04296875 C-121.30108483 205.53288802 -125.63548061 202.07207925 -130.01171875 198.65625 C-135.06025656 194.71439894 -140.04931362 190.70596739 -145.01171875 186.65625 C-151.21897358 181.59125573 -157.48691226 176.61194092 -163.796875 171.67578125 C-177.9540628 160.5986409 -177.9540628 160.5986409 -178.40063477 157.17211914 C-178.58130493 155.20166626 -178.58130493 155.20166626 -178.765625 153.19140625 C-178.83079819 152.48406845 -178.89597137 151.77673065 -178.96311951 151.04795837 C-179.10059892 149.54250866 -179.23578776 148.03684832 -179.36889648 146.53100586 C-179.57065001 144.25893968 -179.78182113 141.98789696 -179.99414062 139.71679688 C-180.68212218 132.18014428 -181.18474646 124.73185438 -181.01171875 117.15625 C-174.50052052 113.57509097 -168.37928553 111.06400409 -161.01171875 113.15625 C-158.31545801 114.88870261 -155.9338763 116.93848455 -153.51171875 119.03125 C-152.08423717 120.22894266 -150.65583595 121.42554 -149.2265625 122.62109375 C-148.51612793 123.22034668 -147.80569336 123.81959961 -147.07373047 124.43701172 C-144.12777277 126.89325539 -141.10653617 129.24566588 -138.07421875 131.59375 C-131.8532896 136.43988817 -125.76401612 141.43906521 -119.69555664 146.47436523 C-119.01356201 147.03969971 -118.33156738 147.60503418 -117.62890625 148.1875 C-117.02675293 148.68830078 -116.42459961 149.18910156 -115.80419922 149.70507812 C-114.51924239 150.74536462 -113.18883319 151.73044413 -111.83300781 152.67651367 C-109.19404655 154.82058126 -109.27204539 156.64428297 -108.88671875 159.96875 C-108.71785156 161.13148438 -108.54898438 162.29421875 -108.375 163.4921875 C-108.01171875 167.15625 -108.01171875 167.15625 -108.1171875 170.6328125 C-108.05496367 175.64465945 -107.76782449 179.3578668 -104.12548828 183.08789062 C-99.42065531 187.04590905 -94.37156174 190.47103533 -89.17822266 193.75268555 C-87.04571869 195.13422322 -85.0364353 196.62269266 -83.01171875 198.15625 C-83.03051086 196.79944122 -83.03051086 196.79944122 -83.04968262 195.41522217 C-83.33467347 174.74498419 -83.60148565 154.07461551 -83.835495 133.4037323 C-83.85564964 131.6257628 -83.87581648 129.84779344 -83.89599609 128.06982422 C-83.90572228 127.21198869 -83.91544847 126.35415316 -83.9254694 125.47032261 C-83.98418985 120.3565556 -84.05051544 115.24297739 -84.12353516 110.12939453 C-84.19933531 104.81870573 -84.25866358 99.50822045 -84.29882812 94.19714355 C-84.31565144 92.38936494 -84.33948955 90.58163695 -84.37060547 88.77404785 C-84.41154178 86.33477279 -84.42801933 83.89659981 -84.4375 81.45703125 C-84.45937378 79.49503784 -84.45937378 79.49503784 -84.48168945 77.4934082 C-83.73810646 72.21338955 -80.52095735 69.39002388 -76.57421875 66.09375 C-72.7997694 62.8695942 -69.14770208 59.53423279 -65.51171875 56.15625 C-59.74805357 50.81652788 -53.90089601 45.60340327 -47.90625 40.5234375 C-40.46875001 34.20718981 -33.24206045 27.71718762 -26.1171875 21.05078125 C-23.17878197 18.30364846 -20.20667033 15.60594831 -17.1484375 12.9921875 C-15.33717658 11.43589384 -13.55773403 9.85333474 -11.78125 8.2578125 C-10.60847597 7.22350115 -9.43529708 6.18964867 -8.26171875 5.15625 C-7.42821899 4.39707275 -7.42821899 4.39707275 -6.57788086 3.62255859 C-2.65209243 0.20598776 -2.65209243 0.20598776 0 0 Z " fill="#FEFEFE" transform="translate(377.01171875,41.84375)"/>
<path d="M0 0 C0.8979126 -0.00352478 1.7958252 -0.00704956 2.72094727 -0.01068115 C21.06181122 0.03832116 21.06181122 0.03832116 28.46801758 6.72241211 C35.3125 14.47828425 35.3125 14.47828425 35.3125 18.4375 C35.9725 18.4375 36.6325 18.4375 37.3125 18.4375 C38.70837402 19.85461426 38.70837402 19.85461426 40.34960938 21.84570312 C44.55935099 26.79262451 49.10502075 31.33816833 53.71875 35.90625 C54.60228149 36.78599487 55.48581299 37.66573975 56.39611816 38.57214355 C59.19915133 41.36304506 62.00529916 44.15079232 64.8125 46.9375 C68.5135055 50.61148738 72.21081822 54.28915602 75.90625 57.96875 C76.74498657 58.79918823 77.58372314 59.62962646 78.44787598 60.48522949 C82.75557869 64.77509493 86.88739771 69.14221138 90.85025024 73.75262451 C92.50651762 75.66105657 94.24259016 77.45427 96.05859375 79.2109375 C96.66767578 79.80777344 97.27675781 80.40460938 97.90429688 81.01953125 C99.16054856 82.23989003 100.41842578 83.4585772 101.67773438 84.67578125 C102.27779297 85.26488281 102.87785156 85.85398437 103.49609375 86.4609375 C104.03806396 86.98606934 104.58003418 87.51120117 105.13842773 88.05224609 C106.3125 89.4375 106.3125 89.4375 106.3125 91.4375 C104.85816956 92.87306213 104.85816956 92.87306213 102.83813477 94.54516602 C98.3082576 98.39975496 94.10063441 102.50481844 89.90234375 106.71484375 C89.13120743 107.48502335 88.36007111 108.25520294 87.56556702 109.04872131 C85.94669847 110.66691373 84.32907449 112.28635212 82.71264648 113.90698242 C80.25681282 116.36817232 77.79568635 118.82397809 75.33398438 121.27929688 C73.75228347 122.86165867 72.17089283 124.44433067 70.58984375 126.02734375 C69.50049782 127.11365334 69.50049782 127.11365334 68.3891449 128.22190857 C62.6021619 134.03516112 57.19359914 140.07999565 52.04736328 146.46679688 C27.34228165 177.04092895 27.34228165 177.04092895 10.33984375 178.9453125 C6.66668097 179.19289147 3.05290381 179.19522287 -0.625 179.0625 C-1.4990448 179.03712158 -2.3730896 179.01174316 -3.27362061 178.9855957 C-14.51288299 178.48046032 -22.21179308 176.20320499 -30.6875 168.4375 C-31.86996111 167.51575222 -33.060275 166.60389588 -34.26171875 165.70703125 C-35.28910156 164.89621094 -36.31648437 164.08539063 -37.375 163.25 C-37.95330566 162.79423584 -38.53161133 162.33847168 -39.12744141 161.86889648 C-42.96870407 158.8308442 -46.76836754 155.7444533 -50.55737305 152.64160156 C-57.10325369 147.28247561 -63.73212742 142.08330187 -70.52661133 137.04296875 C-76.58878489 132.53959738 -82.54640275 127.90812053 -88.48583984 123.24438477 C-91.84622583 120.61326915 -95.21859198 118.03853602 -98.71484375 115.58984375 C-99.69582031 114.87957031 -100.67679687 114.16929687 -101.6875 113.4375 C-101.6875 113.1075 -101.6875 112.7775 -101.6875 112.4375 C-100.62437088 112.46272232 -99.56124176 112.48794464 -98.46589661 112.51393127 C-88.30615678 112.74334729 -78.14867634 112.8782252 -67.98642445 112.92715549 C-62.76475423 112.95515874 -57.54750356 113.01321621 -52.32739258 113.1472168 C-24.42949153 113.83650572 -5.08458521 111.89264802 17.3125 94.4375 C18.72371202 93.41469806 20.13966515 92.39835665 21.56323242 91.39282227 C22.47049072 90.74756592 23.37774902 90.10230957 24.3125 89.4375 C20.74677251 85.58987028 17.0891412 82.8561734 12.515625 80.265625 C11.88138611 79.89773865 11.24714722 79.52985229 10.59368896 79.15081787 C8.58746896 77.9889576 6.57531643 76.83788753 4.5625 75.6875 C2.53673173 74.52065363 0.51224321 73.3516285 -1.51153564 72.18133545 C-2.76657252 71.45655857 -4.02300447 70.73419108 -5.28094482 70.01446533 C-9.57897777 67.54602223 -9.57897777 67.54602223 -10.6875 66.4375 C-13.54841818 66.34227582 -16.38513621 66.31196674 -19.24633789 66.32397461 C-20.14381241 66.32382858 -21.04128693 66.32368256 -21.96595764 66.3235321 C-24.94738134 66.32423158 -27.9287434 66.33202559 -30.91015625 66.33984375 C-32.97138942 66.34170781 -35.03262304 66.34313177 -37.09385681 66.34413147 C-42.5305401 66.34795763 -47.96719686 66.35778874 -53.40386963 66.36883545 C-58.94697714 66.37904747 -64.49008892 66.38362864 -70.03320312 66.38867188 C-80.91798043 66.39941092 -91.80273802 66.41648851 -102.6875 66.4375 C-99.28333249 62.98627519 -95.87206124 59.92049586 -92 57 C-90.84330253 56.12168273 -89.68707934 55.24274063 -88.53125 54.36328125 C-87.603125 53.65872803 -87.603125 53.65872803 -86.65625 52.93994141 C-83.08465056 50.21429372 -79.54401889 47.44884949 -76 44.6875 C-75.23848633 44.09525635 -74.47697266 43.5030127 -73.69238281 42.89282227 C-69.85705415 39.90956589 -66.0262615 36.92074193 -62.203125 33.921875 C-53.70826453 27.26935194 -45.13799173 20.74623498 -36.40649414 14.40625 C-35.67422607 13.87257813 -34.94195801 13.33890625 -34.1875 12.7890625 C-33.44153564 12.25772705 -32.69557129 11.7263916 -31.92700195 11.17895508 C-29.62394456 9.46927863 -29.62394456 9.46927863 -27.59448242 7.2956543 C-19.57006737 -0.52576607 -10.60529075 -0.09266993 0 0 Z " fill="#000000" transform="translate(570.6875,281.5625)"/>
<path d="M0 0 C0.84184845 -0.01570038 1.6836969 -0.03140076 2.55105591 -0.0475769 C15.20584189 -0.16089692 22.69877823 2.76041003 31.8359375 11.47634888 C33.70023074 13.23792413 35.68395025 14.82419896 37.6953125 16.4140625 C38.92238908 17.42124901 40.14896501 18.42904584 41.375 19.4375 C46.91406557 23.96581646 52.53143058 28.33157695 58.28125 32.58984375 C61.51787418 35.01305317 64.70122557 37.49545452 67.875 40 C73.44392208 44.39366255 79.02739655 48.76791221 84.625 53.125 C85.36186035 53.69951904 86.0987207 54.27403809 86.85791016 54.8659668 C91.61621541 58.56800338 96.41465185 62.21169147 101.25 65.8125 C97.49384281 67.0645524 94.08228053 66.84026199 90.18041992 66.71972656 C88.47276648 66.67672325 86.7650986 66.63429053 85.05741882 66.59234619 C84.15011206 66.56876289 83.24280529 66.5451796 82.30800438 66.52088165 C76.4468238 66.38042932 70.58434209 66.30650294 64.72214794 66.22107315 C59.59417984 66.14260803 54.46881551 66.04106475 49.3425293 65.88671875 C17.72623506 64.31302686 17.72623506 64.31302686 -9.74256897 78.18096924 C-12.97285874 80.80637308 -16.51486541 82.8989736 -20.0625 85.0625 C-23.58083541 87.21092205 -23.58083541 87.21092205 -26.75 89.8125 C-22.92853926 92.14427133 -19.10564768 94.4736743 -15.28149414 96.80102539 C-13.98456249 97.59076269 -12.68800331 98.38111207 -11.3918457 99.17211914 C-9.51354394 100.31823843 -7.63385015 101.46204549 -5.75390625 102.60546875 C-4.06503296 103.63450317 -4.06503296 103.63450317 -2.34204102 104.68432617 C-1.75431412 105.02227707 -1.16658722 105.36022797 -0.56105042 105.7084198 C1.25 106.8125 1.25 106.8125 2.96644592 108.16230774 C11.06222139 113.88711874 21.3492562 112.54142259 30.81640625 112.51953125 C32.82138056 112.53265888 34.82634167 112.54796636 36.83128357 112.56535339 C42.08378115 112.60509149 47.33593186 112.61538665 52.58856201 112.61938477 C57.95823616 112.6287373 63.3277083 112.66616413 68.69726562 112.70117188 C79.21483441 112.76563381 89.73225094 112.79896734 100.25 112.8125 C97.42544809 115.66194517 94.68262989 118.39249263 91.46484375 120.79296875 C90.77551758 121.31205811 90.08619141 121.83114746 89.37597656 122.3659668 C88.6537793 122.90519775 87.93158203 123.44442871 87.1875 124 C81.02681771 128.65077564 75.04399361 133.42719992 69.1484375 138.41015625 C65.49199251 141.44076766 61.73730601 144.3265295 57.96166992 147.20605469 C53.89751333 150.30638208 49.89652349 153.47555765 45.9140625 156.6796875 C42.68652118 159.26361354 39.43900607 161.82133561 36.1875 164.375 C35.63392822 164.80997803 35.08035645 165.24495605 34.51000977 165.69311523 C33.40176485 166.56289552 32.2849948 167.42192767 31.15979004 168.26965332 C29.22384043 169.76448423 29.22384043 169.76448423 27.61485291 171.5348053 C18.89624797 179.93859915 6.52136427 179.21403935 -4.86557007 179.25680542 C-22.16216966 178.74938368 -31.79584212 171.24601452 -43.48016357 159.17376709 C-46.86148653 155.58323479 -50.12467456 151.89736704 -53.37475586 148.18823242 C-56.75203137 144.38802457 -60.26374292 140.71607693 -63.76171875 137.02734375 C-68.81827044 131.65597981 -73.8266374 126.24718816 -78.72509766 120.73095703 C-79.23885956 120.15840179 -79.75262146 119.58584656 -80.2819519 118.99594116 C-83.75 115.05057618 -83.75 115.05057618 -83.75 112.8125 C-84.41 112.8125 -85.07 112.8125 -85.75 112.8125 C-85.75 112.1525 -85.75 111.4925 -85.75 110.8125 C-86.41 110.8125 -87.07 110.8125 -87.75 110.8125 C-89.0546875 109.484375 -89.0546875 109.484375 -90.625 107.5625 C-95.64702718 101.63416218 -101.22001718 96.26075893 -106.75 90.8125 C-105.17035813 86.96222794 -102.71855605 84.56624465 -99.76953125 81.671875 C-99.27845383 81.18599915 -98.7873764 80.70012329 -98.28141785 80.19952393 C-96.71314352 78.64899697 -95.13836518 77.10530844 -93.5625 75.5625 C-85.75036575 68.00050689 -85.75036575 68.00050689 -78.4140625 59.98828125 C-73.37142282 54.07947258 -67.76927254 48.68346333 -62.27124023 43.20336914 C-60.31704376 41.2545313 -58.36824853 39.30040728 -56.41992188 37.34570312 C-45.99717342 26.92112403 -45.99717342 26.92112403 -41.28125 23 C-38.48091508 20.6458416 -36.49713713 18.1899074 -34.40234375 15.19140625 C-24.80895237 2.21762476 -15.39219176 0.01420524 0 0 Z " fill="#000000" transform="translate(181.75,281.1875)"/>
<path d="M0 0 C3.45105456 1.50491192 5.86724097 3.51583979 8.625 6.0625 C9.93984375 7.26712891 9.93984375 7.26712891 11.28125 8.49609375 C12.62703125 9.73552734 12.62703125 9.73552734 14 11 C15.70605611 12.54418633 17.41433079 14.08592569 19.125 15.625 C19.95257813 16.37007812 20.78015625 17.11515625 21.6328125 17.8828125 C24.38603893 20.34526914 27.16643 22.7747941 29.953125 25.19921875 C33.10283537 27.97024257 36.19931212 30.79692596 39.26171875 33.6640625 C41.97744379 36.10021735 41.97744379 36.10021735 45.26953125 38.0234375 C53.34185805 43.32838299 53.34185805 43.32838299 54.52064896 48.11348724 C54.74829045 50.66550632 54.80536027 53.17117844 54.80517578 55.73339844 C54.82641573 56.69516369 54.84765568 57.65692894 54.86953926 58.64783859 C54.91245483 60.70899738 54.94380459 62.77042388 54.96460724 64.83192444 C54.99944916 67.95069332 55.07210298 71.06619547 55.15740967 74.18395996 C55.49677866 87.0225361 55.64417547 99.86423475 55.75568962 112.7065773 C55.81267455 119.14886953 55.89535119 125.58872366 56.03564453 132.02978516 C56.17205656 138.32536069 56.24449406 144.61871213 56.27234268 150.9156723 C56.29373744 153.29689228 56.33761901 155.67802674 56.405056 158.05838776 C56.93282696 177.53870976 56.93282696 177.53870976 52.22808838 182.56066895 C49.10347525 185.22426298 45.61515507 187.06743534 42 189 C39.91078413 190.56160068 37.97537657 192.22817639 36 193.9375 C32.79715055 196.62769824 29.63684394 198.92829783 26 201 C23.11963422 199.04614913 21.7429515 197.94759773 20 195 C19.32006253 190.5240973 19.42233754 186.11923696 19.57777214 181.61044884 C19.65380283 179.27948605 19.68511002 176.95167047 19.70423889 174.61958313 C19.764403 167.99313551 19.88489111 161.36927394 20.07836914 154.74536133 C20.67407316 133.26436765 19.74862383 117.72241518 7.53372192 99.31411743 C5.52956099 96.29019003 3.76524261 93.16784625 2 90 C-3.48362721 97.54805156 -7.67522192 105.73932483 -11.9284668 114.01464844 C-13 116 -13 116 -14.54689026 118.17672729 C-16.37169181 121.72216661 -16.35278782 124.17844555 -16.32128906 128.15771484 C-16.32023666 128.85921158 -16.31918427 129.56070831 -16.31809998 130.28346252 C-16.31450399 131.80033494 -16.30438622 133.31720308 -16.28842926 134.83399582 C-16.26535245 137.23934577 -16.26431739 139.64377981 -16.26971436 142.04922485 C-16.2823631 148.88558836 -16.26544192 155.72146383 -16.20947266 162.55761719 C-16.17673598 166.74585944 -16.17810323 170.93297217 -16.20049286 175.12126541 C-16.2022359 176.71202112 -16.19104384 178.30284795 -16.16638947 179.89341354 C-15.97764016 192.36718998 -15.97764016 192.36718998 -18.61169434 196.57403564 C-20.32248919 198.30040081 -21.95079791 199.70224412 -24 201 C-28.94137601 197.84707833 -33.42519057 194.29785549 -37.9375 190.5625 C-39.29906102 189.43671834 -40.66232792 188.31299644 -42.02734375 187.19140625 C-42.92054321 186.45192749 -42.92054321 186.45192749 -43.83178711 185.69750977 C-45.83532655 184.00386841 -45.83532655 184.00386841 -47.71003056 183.17817974 C-49.9177888 181.98833555 -51.36885486 180.91844604 -53 179 C-54.08534741 174.87135357 -53.97678507 170.79921103 -53.9375 166.54980469 C-53.95297882 165.28581345 -53.96845764 164.0218222 -53.98440552 162.7195282 C-54.02481085 159.25817401 -54.02072833 155.79821218 -54.00614166 152.3367033 C-53.99792875 149.44179526 -54.01133534 146.54714988 -54.02465248 143.65227342 C-54.05569212 136.8172693 -54.05057969 129.98294742 -54.02246094 123.14794922 C-53.99409634 116.11214501 -54.02390565 109.07831838 -54.08308029 102.04275012 C-54.13205278 95.99060921 -54.14581646 89.9390837 -54.1314888 83.8867619 C-54.12321475 80.27718316 -54.12766479 76.66882601 -54.16552734 73.0594101 C-54.20587671 69.02761832 -54.1726492 64.99957046 -54.1328125 60.96777344 C-54.15417267 59.7830394 -54.17553284 58.59830536 -54.19754028 57.37767029 C-54.06710915 50.95474015 -53.25126356 47.54207651 -48.65966797 42.89654541 C-47.13141208 41.56841066 -45.57932183 40.26698481 -44 39 C-42.76673538 37.90041231 -41.53675847 36.7971062 -40.3125 35.6875 C-38.87908785 34.45356866 -37.44092694 33.22514754 -36 32 C-28.10807913 25.28945887 -20.30788229 18.51979217 -12.703125 11.484375 C-9.68919823 8.71434982 -6.62246954 6.01390305 -3.5234375 3.33984375 C-2.30827165 2.27112096 -1.1442894 1.1442894 0 0 Z " fill="#000000" transform="translate(375,83)"/>
<path d="M0 0 C6.27141854 3.93207988 12.08972039 8.3332553 17.86181641 12.95239258 C18.42562012 13.40251709 18.98942383 13.8526416 19.5703125 14.31640625 C20.30918701 14.91110718 20.30918701 14.91110718 21.06298828 15.51782227 C23.16545879 17.21378144 23.16545879 17.21378144 26.51882935 18.84092712 C28.93299685 20.58388801 29.86624286 21.58576669 30.78945351 24.44486332 C31.24286456 27.64548303 31.47326108 30.79860948 31.63574219 34.02734375 C31.72069695 35.25074022 31.8056517 36.4741367 31.89318085 37.73460579 C32.15636497 41.80114582 32.35987989 45.86695089 32.546875 49.9375 C32.61603696 51.35326345 32.68526911 52.76902347 32.75457001 54.18478012 C33.22068516 64.00577384 33.506717 73.8272065 33.7023201 83.65705395 C33.74985622 85.99293459 33.80365088 88.32861389 33.85800171 90.66434479 C35.33084798 157.75806095 35.33084798 157.75806095 14.65838623 180.68878174 C3.79243968 192.0299971 -9.28380667 201.43063013 -23 209 C-26.75280862 205.83015194 -30.46020255 202.67082619 -33.90234375 199.16015625 C-34.56556641 198.48919922 -35.22878906 197.81824219 -35.91210938 197.12695312 C-37.2585012 195.75459424 -38.60485559 194.38219862 -39.95117188 193.00976562 C-40.94793945 192.00139648 -40.94793945 192.00139648 -41.96484375 190.97265625 C-42.84064087 190.07945679 -42.84064087 190.07945679 -43.73413086 189.16821289 C-48.86146375 184.26186192 -53.81532923 180.0809533 -59.94335938 176.44824219 C-68.79597046 170.46191659 -76.13766623 163.52195991 -78.78961182 152.8107605 C-82.01358454 133.93664097 -81.09285215 114.3335075 -80.63331509 95.26865244 C-80.49185533 89.00820221 -80.49773074 82.75470249 -80.5419488 76.49315095 C-80.58770229 69.65951812 -80.5421728 62.82950145 -80.45256042 55.9963913 C-80.41573423 53.11405216 -80.40824119 50.23395598 -80.42524719 47.35144806 C-80.50802907 23.87599943 -80.50802907 23.87599943 -74.49780273 17.6895752 C-71.2287039 14.98266554 -67.75706622 12.96353763 -63.96714783 11.077034 C-60.82628126 9.35737672 -58.39497667 7.09252808 -55.75 4.6875 C-51.59915907 0.99428283 -51.59915907 0.99428283 -48.953125 1.01953125 C-46.25654491 2.37321446 -44.86676298 3.59149868 -43 6 C-42.648201 8.8822989 -42.53637814 11.37209319 -42.61279297 14.24658203 C-42.61851822 15.07656708 -42.62424347 15.90655212 -42.63014221 16.76168823 C-42.64424615 18.56453919 -42.66705958 20.36733821 -42.69753647 22.16998672 C-42.74270014 25.04039391 -42.75777777 27.90950196 -42.76394653 30.78024292 C-42.78480098 38.94215038 -42.8422859 47.10307788 -42.96191406 55.26416016 C-43.03302287 60.26184447 -43.05392136 65.25779476 -43.04520035 70.25594711 C-43.05142912 72.14474635 -43.07585737 74.03359071 -43.12023544 75.92187881 C-43.43422038 89.58771488 -40.77175001 98.63813711 -33.24423599 110.07706833 C-31.35490939 112.99696936 -29.68833917 116.02249238 -28 119.0625 C-26.12437273 122.6905421 -26.12437273 122.6905421 -23 125 C-22.73646729 124.29190186 -22.47293457 123.58380371 -22.20141602 122.85424805 C-20.93494829 119.84545427 -19.43463263 117.14386759 -17.77734375 114.33203125 C-16.84631836 112.74551758 -16.84631836 112.74551758 -15.89648438 111.12695312 C-14.92678711 109.48629883 -14.92678711 109.48629883 -13.9375 107.8125 C-12.65449668 105.63177583 -11.37192235 103.4507992 -10.08984375 101.26953125 C-9.52128662 100.30635986 -8.95272949 99.34318848 -8.36694336 98.35083008 C-5.84268518 94.00968308 -5.86132324 90.62494083 -5.87402344 85.68237305 C-5.8721553 84.82204468 -5.87028717 83.96171631 -5.86836243 83.07531738 C-5.8643531 81.203191 -5.8622831 79.3310597 -5.86190033 77.45892906 C-5.8584918 73.48096992 -5.83713803 69.50317526 -5.81666946 65.52527332 C-5.77860803 58.11423931 -5.74738575 50.70337916 -5.74951172 43.29223633 C-5.75029823 38.14147496 -5.72695973 32.99131276 -5.6876297 27.84070778 C-5.67715734 25.87715154 -5.67565473 23.91352625 -5.68328094 21.94995689 C-5.69289067 19.20124767 -5.67174366 16.45435564 -5.64355469 13.70581055 C-5.65375137 12.89471329 -5.66394806 12.08361603 -5.67445374 11.24794006 C-5.59423001 6.88480833 -5.37497359 5.4493552 -2.45977783 1.95588684 C-1.64805115 1.31044418 -0.83632446 0.66500153 0 0 Z " fill="#000000" transform="translate(400,459)"/>
<path d="M0 0 C2.84374027 1.29298895 4.89894298 2.65039898 7.1005249 4.86001587 C7.68660019 5.44334183 8.27267548 6.02666779 8.87651062 6.62767029 C9.50733047 7.26568069 10.13815033 7.9036911 10.78808594 8.56103516 C11.46166641 9.23432358 12.13524689 9.907612 12.82923889 10.6013031 C15.05239154 12.82584803 17.26837793 15.05739129 19.484375 17.2890625 C21.02521865 18.83363662 22.56650472 20.37776951 24.10821533 21.92147827 C28.16339037 25.98428698 32.21252324 30.05306622 36.26043701 34.12310791 C40.39265611 38.27579106 44.53054757 42.42281344 48.66796875 46.5703125 C56.78421499 54.70800398 64.89409083 62.85201269 73 71 C71.70701105 73.84374027 70.34960102 75.89894298 68.13998413 78.1005249 C67.55665817 78.68660019 66.97333221 79.27267548 66.37232971 79.87651062 C65.4153141 80.8227404 65.4153141 80.8227404 64.43896484 81.78808594 C63.76567642 82.46166641 63.092388 83.13524689 62.3986969 83.82923889 C60.17415197 86.05239154 57.94260871 88.26837793 55.7109375 90.484375 C54.16636338 92.02521865 52.62223049 93.56650472 51.07852173 95.10821533 C47.01571302 99.16339037 42.94693378 103.21252324 38.87689209 107.26043701 C34.72420894 111.39265611 30.57718656 115.53054757 26.4296875 119.66796875 C18.29199602 127.78421499 10.14798731 135.89409083 2 144 C-1.85543799 142.41529013 -4.27694154 139.9581708 -7.19238281 137.01879883 C-7.69705582 136.51281158 -8.20172882 136.00682434 -8.72169495 135.48550415 C-10.38681876 133.81389787 -12.04484788 132.13542741 -13.703125 130.45703125 C-14.86600366 129.2878761 -16.02940303 128.11923866 -17.19329834 126.95109558 C-20.2588443 123.87224881 -23.31878415 120.78789539 -26.37713623 117.7019043 C-31.25623405 112.77971586 -36.14191984 107.8640921 -41.03108978 102.95191002 C-42.72836499 101.24451345 -44.42212307 99.53368657 -46.11553955 97.82246399 C-51.07699892 92.82259803 -56.05684706 87.90029888 -61.43292236 83.3397522 C-63.56346914 81.51826954 -65.53636827 79.56119658 -67.5 77.5625 C-68.1703125 76.88316406 -68.840625 76.20382812 -69.53125 75.50390625 C-70.0159375 75.00761719 -70.500625 74.51132812 -71 74 C-69.53398305 70.60011879 -67.64744314 68.42539741 -65.0078125 65.84765625 C-63.82638672 64.68266602 -63.82638672 64.68266602 -62.62109375 63.49414062 C-61.79738281 62.69169922 -60.97367187 61.88925781 -60.125 61.0625 C-58.5002765 59.472427 -56.87780809 57.88004587 -55.2578125 56.28515625 C-54.5373877 55.58269775 -53.81696289 54.88023926 -53.07470703 54.15649414 C-50.88518025 51.88065394 -48.94536484 49.48591647 -47 47 C-45.375 45.1875 -45.375 45.1875 -44 44 C-43.34 44 -42.68 44 -42 44 C-41.73654785 43.39897461 -41.4730957 42.79794922 -41.20166016 42.17871094 C-39.92941436 39.8720223 -38.8110668 38.78119781 -36.7734375 37.140625 C-30.69816306 31.99599586 -25.15917632 26.30832909 -19.54345703 20.67382812 C-17.61214044 18.73710444 -15.67547546 16.80584276 -13.73828125 14.875 C-12.50488717 13.64094591 -11.27180289 12.40658208 -10.0390625 11.171875 C-9.46201569 10.59685242 -8.88496887 10.02182983 -8.29043579 9.42938232 C-5.92073075 7.04570502 -3.87065483 4.80598225 -2 2 C-1.34 2 -0.68 2 0 2 C0 1.34 0 0.68 0 0 Z " fill="#000000" transform="translate(375,299)"/>
<path d="M0 0 C2.78890045 1.15050885 4.10862507 1.73476618 6 4 C6.93032726 8.13822913 6.75643046 12.25500851 6.68115234 16.47949219 C6.6820285 17.75779404 6.68290466 19.03609589 6.68380737 20.35313416 C6.68552877 23.85535835 6.65025854 27.35634929 6.60836363 30.85828686 C6.57085196 34.51908805 6.56733099 38.17991762 6.56021118 41.84088135 C6.54156338 48.7719256 6.49232805 55.70240194 6.43211424 62.63319612 C6.36504641 70.5242313 6.33205955 78.41529362 6.30194163 86.30654287 C6.23922827 102.5380277 6.13369547 118.76894137 6 135 C5.67 135 5.34 135 5 135 C4.93941406 134.01257813 4.87882812 133.02515625 4.81640625 132.0078125 C4.73261719 130.72648438 4.64882813 129.44515625 4.5625 128.125 C4.44068359 126.21074219 4.44068359 126.21074219 4.31640625 124.2578125 C4.20793973 121.11699848 4.20793973 121.11699848 3 119 C2.90013974 117.47602667 2.86224016 115.94778826 2.85523987 114.42056274 C2.84834137 113.45596634 2.84144287 112.49136993 2.83433533 111.49754333 C2.83172195 110.43568314 2.82910858 109.37382294 2.82641602 108.27978516 C2.819729 107.16425766 2.81304199 106.04873016 2.80615234 104.8993988 C2.79207665 102.47070037 2.78019068 100.0419885 2.77020454 97.61326981 C2.75383608 93.77259705 2.73060017 89.93202385 2.70530701 86.09140015 C2.63441445 75.16938186 2.57432736 64.24732356 2.52319336 53.32519531 C2.4918631 46.65091163 2.45017255 39.97675581 2.40299797 33.30256271 C2.38695534 30.75483623 2.37464428 28.20708347 2.36609077 25.65932083 C2.35396611 22.09909724 2.32982778 18.53914248 2.30297852 14.97900391 C2.30238937 13.92119217 2.30180023 12.86338043 2.30119324 11.77351379 C2.29147491 10.80327774 2.28175659 9.83304169 2.27174377 8.83340454 C2.26539587 7.57075744 2.26539587 7.57075744 2.25891972 6.28260231 C1.97683372 3.79576913 1.24631802 2.15270001 0 0 Z " fill="#090C22" transform="translate(424,477)"/>
<path d="M0 0 C0.33 0 0.66 0 1 0 C1.8039575 7.50251206 2.1406874 14.89552525 2.11352539 22.43823242 C2.11367142 23.52248505 2.11381744 24.60673767 2.1139679 25.72384644 C2.11327746 29.2677417 2.10552619 32.8115828 2.09765625 36.35546875 C2.09578898 38.82839428 2.09436654 41.30132018 2.09336853 43.77424622 C2.0895677 50.25307249 2.07975842 56.73187601 2.06866455 63.21069336 C2.05839787 69.83381848 2.05385969 76.45694732 2.04882812 83.08007812 C2.03813378 96.05339507 2.02128168 109.02669632 2 122 C1.34 122 0.68 122 0 122 C-0.12867289 113.93649887 0.20318916 106.02502344 1 98 C0.34 98 -0.32 98 -1 98 C-1.02317892 86.10831808 -1.04094343 74.21664155 -1.05181217 62.32494164 C-1.05702884 56.80304542 -1.06410444 51.28116466 -1.07543945 45.75927734 C-1.0863115 40.42951938 -1.09228601 35.09977629 -1.09487724 29.77000809 C-1.0967237 27.73747143 -1.10032934 25.70493557 -1.10573006 23.67240524 C-1.11299774 20.82374061 -1.11398852 17.97513727 -1.11352539 15.12646484 C-1.11712067 14.28776855 -1.12071594 13.44907227 -1.12442017 12.58496094 C-1.11684745 8.27517161 -0.86116206 4.24478809 0 0 Z " fill="#0A0E25" transform="translate(428,140)"/>
<path d="M0 0 C0.10158338 28.87202335 0.14599399 57.72294051 -0.64208984 86.58642578 C-1.02529199 100.72849066 -1.11891665 114.85257736 -1 129 C-1.66 129 -2.32 129 -3 129 C-3 86.76 -3 44.52 -3 1 C-1 0 -1 0 0 0 Z " fill="#181F3B" transform="translate(325,480)"/>
<path d="M0 0 C1.98 0.495 1.98 0.495 4 1 C4 1.66 4 2.32 4 3 C4.99 3.33 5.98 3.66 7 4 C8.71334022 5.61864784 10.3709309 7.2965654 12 9 C13.10800157 10.11334617 14.21881766 11.22389648 15.33203125 12.33203125 C18.5546875 15.5546875 21.77734375 18.77734375 25 22 C24 24 24 24 22.125 24.6875 C20 25 20 25 17 24 C17 22.02 17 20.04 17 18 C16.195625 17.7525 15.39125 17.505 14.5625 17.25 C13.716875 16.8375 12.87125 16.425 12 16 C11.3125 13.9375 11.3125 13.9375 11 12 C10.34 11.67 9.68 11.34 9 11 C9 10.34 9 9.68 9 9 C8.195625 8.7525 7.39125 8.505 6.5625 8.25 C4 7 4 7 3.1875 4.875 C3.125625 4.25625 3.06375 3.6375 3 3 C1.68 3 0.36 3 -1 3 C-0.67 2.01 -0.34 1.02 0 0 Z " fill="#010006" transform="translate(89,430)"/>
<path d="M0 0 C0.66 0 1.32 0 2 0 C2 7.92 2 15.84 2 24 C1.34 24 0.68 24 0 24 C-0.33 22.35 -0.66 20.7 -1 19 C-1.33 20.65 -1.66 22.3 -2 24 C-2.66 24 -3.32 24 -4 24 C-4 18.06 -4 12.12 -4 6 C-3.34 6 -2.68 6 -2 6 C-1.34 4.02 -0.68 2.04 0 0 Z " fill="#060615" transform="translate(292,160)"/>
<path d="M0 0 C2.475 0.495 2.475 0.495 5 1 C5 1.66 5 2.32 5 3 C8.63 3 12.26 3 16 3 C16.495 3.99 16.495 3.99 17 5 C4.79 5 -7.42 5 -20 5 C-19.67 4.34 -19.34 3.68 -19 3 C-12.73 3 -6.46 3 0 3 C0 2.01 0 1.02 0 0 Z " fill="#030318" transform="translate(172,248)"/>
<path d="M0 0 C1.32 0 2.64 0 4 0 C4 6.27 4 12.54 4 19 C3.01 18.67 2.02 18.34 1 18 C0.87625 16.865625 0.7525 15.73125 0.625 14.5625 C0.41875 13.386875 0.2125 12.21125 0 11 C-0.66 10.67 -1.32 10.34 -2 10 C-2 7.36 -2 4.72 -2 2 C-1.34 2 -0.68 2 0 2 C0 1.34 0 0.68 0 0 Z " fill="#020313" transform="translate(290,216)"/>
<path d="M0 0 C1.62490954 -0.02698189 3.24994633 -0.04638757 4.875 -0.0625 C5.77992188 -0.07410156 6.68484375 -0.08570313 7.6171875 -0.09765625 C10 0 10 0 12 1 C12 4.3 12 7.6 12 11 C6.67304271 8.33652136 3.47955754 4.74026679 0 0 Z " fill="#040609" transform="translate(308,376)"/>
<path d="M0 0 C9.24 0 18.48 0 28 0 C28 1.65 28 3.3 28 5 C25.36 5 22.72 5 20 5 C20 4.34 20 3.68 20 3 C17.76352369 1.88176185 16.35108471 1.80603939 13.8671875 1.68359375 C13.06152344 1.64169922 12.25585938 1.59980469 11.42578125 1.55664062 C10.58402344 1.51732422 9.74226563 1.47800781 8.875 1.4375 C8.02550781 1.39431641 7.17601562 1.35113281 6.30078125 1.30664062 C4.20071777 1.20045764 2.10038052 1.09971503 0 1 C0 0.67 0 0.34 0 0 Z " fill="#E4E8ED" transform="translate(484,347)"/>
<path d="M0 0 C0.66 0.33 1.32 0.66 2 1 C1.34 8.26 0.68 15.52 0 23 C-0.66 23 -1.32 23 -2 23 C-2.05789006 19.54173658 -2.09355821 16.08359707 -2.125 12.625 C-2.14175781 11.64015625 -2.15851563 10.6553125 -2.17578125 9.640625 C-2.18222656 8.69960937 -2.18867188 7.75859375 -2.1953125 6.7890625 C-2.20578613 5.91975098 -2.21625977 5.05043945 -2.22705078 4.15478516 C-2 2 -2 2 0 0 Z " fill="#040517" transform="translate(324,129)"/>
<path d="M0 0 C1.5625 1.375 1.5625 1.375 3 3 C3.66 3.66 4.32 4.32 5 5 C2.75 7.5 2.75 7.5 0 10 C-1.32 10 -2.64 10 -4 10 C-4 9.34 -4 8.68 -4 8 C-3.34 7.67 -2.68 7.34 -2 7 C-2.95865509 4.66924071 -2.95865509 4.66924071 -6 3 C-3.375 0 -3.375 0 0 0 Z " fill="#F6F8F9" transform="translate(316,350)"/>
<path d="M0 0 C1.98 0.495 1.98 0.495 4 1 C4 1.66 4 2.32 4 3 C4.99 3.33 5.98 3.66 7 4 C9.73814047 6.53778873 11.92595707 8.8889356 14 12 C12.35 11.67 10.7 11.34 9 11 C9 10.34 9 9.68 9 9 C8.195625 8.7525 7.39125 8.505 6.5625 8.25 C4 7 4 7 3.1875 4.875 C3.125625 4.25625 3.06375 3.6375 3 3 C1.68 3 0.36 3 -1 3 C-0.67 2.01 -0.34 1.02 0 0 Z " fill="#080C16" transform="translate(89,430)"/>
<path d="M0 0 C0.66 0 1.32 0 2 0 C2.391875 0.94875 2.78375 1.8975 3.1875 2.875 C5.25193693 6.43437401 6.26178073 6.72113551 10 8 C10.33 8.99 10.66 9.98 11 11 C11.66 11.33 12.32 11.66 13 12 C13 12.66 13 13.32 13 14 C9.71245489 13.42110619 8.06327505 12.45171589 5.75 10.0625 C5.22921875 9.53785156 4.7084375 9.01320313 4.171875 8.47265625 C3 7 3 7 3 5 C2.34 5 1.68 5 1 5 C1 4.34 1 3.68 1 3 C0.34 3 -0.32 3 -1 3 C-0.67 2.01 -0.34 1.02 0 0 Z " fill="#05060F" transform="translate(95,389)"/>
<path d="M0 0 C0.66 0.33 1.32 0.66 2 1 C2 1.66 2 2.32 2 3 C2.86625 3.3403125 2.86625 3.3403125 3.75 3.6875 C6.5663661 5.33038023 8.08077114 7.39533227 10 10 C6.0177814 9.43111163 3.39432507 8.10998585 0 6 C-0.66 6 -1.32 6 -2 6 C-1.125 1.125 -1.125 1.125 0 0 Z " fill="#000208" transform="translate(308,415)"/>
<path d="M0 0 C1.31223496 3.93670488 0.24296256 6.12488144 -1 10 C-2.65 9.67 -4.3 9.34 -6 9 C-6 8.01 -6 7.02 -6 6 C-4.37064759 4.62131719 -2.70250393 3.28725907 -1 2 C-0.67 1.34 -0.34 0.68 0 0 Z " fill="#080A10" transform="translate(331,343)"/>
<path d="M0 0 C0 0.99 0 1.98 0 3 C-1.32 3.33 -2.64 3.66 -4 4 C-3.67 4.99 -3.34 5.98 -3 7 C-7.875 5.25 -7.875 5.25 -9 3 C-8.21625 2.690625 -7.4325 2.38125 -6.625 2.0625 C-1.52941176 0 -1.52941176 0 0 0 Z " fill="#F6F9F9" transform="translate(424,467)"/>
<path d="M0 0 C2.97 1.98 2.97 1.98 6 4 C5.45276317 7.37462715 4.9451 9.08235 3 12 C2.814375 10.14375 2.814375 10.14375 2.625 8.25 C2.24253695 5.1237803 1.69450477 2.71120763 0 0 Z " fill="#101520" transform="translate(424,477)"/>
<path d="M0 0 C3.96 0 7.92 0 12 0 C12 0.33 12 0.66 12 1 C7.82262526 2.59138085 4.46839215 3.21278058 0 3 C0 2.01 0 1.02 0 0 Z " fill="#F6F7F9" transform="translate(268,347)"/>
<path d="M0 0 C0.66 0 1.32 0 2 0 C2 0.66 2 1.32 2 2 C4.76264289 2.59732819 7.16032769 3 10 3 C9.01 4.485 9.01 4.485 8 6 C7.67 6.66 7.34 7.32 7 8 C1.125 3.375 1.125 3.375 0 0 Z " fill="#EBF2F4" transform="translate(92,430)"/>
<path d="M0 0 C0.66 0 1.32 0 2 0 C2.33 2.31 2.66 4.62 3 7 C2.01 7.66 1.02 8.32 0 9 C-0.66 8.01 -1.32 7.02 -2 6 C-1.125 2.8125 -1.125 2.8125 0 0 Z " fill="#F7F8F9" transform="translate(322,122)"/>
<path d="M0 0 C3 3.75 3 3.75 3 6 C1.68 6.33 0.36 6.66 -1 7 C-1.625 4.625 -1.625 4.625 -2 2 C-1.34 1.34 -0.68 0.68 0 0 Z " fill="#F6F9F9" transform="translate(261,410)"/>
<path d="M0 0 C2.97 0.495 2.97 0.495 6 1 C5.67 1.99 5.34 2.98 5 4 C4.34 4 3.68 4 3 4 C2.67 4.66 2.34 5.32 2 6 C0 2.25 0 2.25 0 0 Z " fill="#F4F6F8" transform="translate(680,402)"/>
<path d="M0 0 C1.32 0.66 2.64 1.32 4 2 C3.01 2.66 2.02 3.32 1 4 C-0.19232613 6.05003955 -0.19232613 6.05003955 -1 8 C-1.33 8 -1.66 8 -2 8 C-2.20086443 4.28400809 -2.1519437 3.22791555 0 0 Z " fill="#04040A" transform="translate(200,534)"/>
<path d="M0 0 C1.98 0.99 3.96 1.98 6 3 C6 4.32 6 5.64 6 7 C4.0625 6.1875 4.0625 6.1875 2 5 C1.67 4.01 1.34 3.02 1 2 C0.34 1.67 -0.32 1.34 -1 1 C-0.67 0.67 -0.34 0.34 0 0 Z " fill="#E3E9ED" transform="translate(72,409)"/>
<path d="M0 0 C2 0 2 0 4.125 2 C4.74375 2.66 5.3625 3.32 6 4 C5.67 4.99 5.34 5.98 5 7 C4.01 6.34 3.02 5.68 2 5 C2 4.34 2 3.68 2 3 C1.01 2.67 0.02 2.34 -1 2 C-0.67 1.34 -0.34 0.68 0 0 Z " fill="#DDE5EA" transform="translate(657,349)"/>
<path d="M0 0 C2.475 0.495 2.475 0.495 5 1 C5 2.32 5 3.64 5 5 C2.525 4.01 2.525 4.01 0 3 C0 2.01 0 1.02 0 0 Z " fill="#03050A" transform="translate(267,197)"/>
<path d="M0 0 C0.99 0.33 1.98 0.66 3 1 C3 2.32 3 3.64 3 5 C3.99 5 4.98 5 6 5 C6 5.66 6 6.32 6 7 C4.35 6.67 2.7 6.34 1 6 C0.67 4.02 0.34 2.04 0 0 Z " fill="#EFF2F5" transform="translate(196,167)"/>
<path d="M0 0 C2.03833424 1.2739589 4.03852126 2.61061923 6 4 C6 4.66 6 5.32 6 6 C3.03 5.505 3.03 5.505 0 5 C0 3.35 0 1.7 0 0 Z " fill="#040508" transform="translate(532,481)"/>
<path d="M0 0 C0.99 0.33 1.98 0.66 3 1 C2.67 1.99 2.34 2.98 2 4 C0.68 3.67 -0.64 3.34 -2 3 C-1.34 2.01 -0.68 1.02 0 0 Z M-5 4 C-4.34 4.33 -3.68 4.66 -3 5 C-3.99 5.66 -4.98 6.32 -6 7 C-5.67 6.01 -5.34 5.02 -5 4 Z " fill="#F7F7F7" transform="translate(480,300)"/>
<path d="M0 0 C0.66 0 1.32 0 2 0 C2 0.66 2 1.32 2 2 C2.66 2.33 3.32 2.66 4 3 C5.125 5.0625 5.125 5.0625 6 7 C5.01 7.495 5.01 7.495 4 8 C4 7.34 4 6.68 4 6 C3.34 6 2.68 6 2 6 C0 3 0 3 0 0 Z " fill="#F1F4F4" transform="translate(604,294)"/>
<path d="M0 0 C2.5 1.375 2.5 1.375 5 3 C5 3.66 5 4.32 5 5 C3.35 4.67 1.7 4.34 0 4 C0 2.68 0 1.36 0 0 Z " fill="#EEF4F6" transform="translate(351,644)"/>
<path d="M0 0 C1 3 1 3 0 6 C-0.99 6 -1.98 6 -3 6 C-3 6.99 -3 7.98 -3 9 C-3.66 8.67 -4.32 8.34 -5 8 C-4.01 6.02 -3.02 4.04 -2 2 C-1.34 2 -0.68 2 0 2 C0 1.34 0 0.68 0 0 Z " fill="#0D1014" transform="translate(615,474)"/>
<path d="M0 0 C2.31 1.98 4.62 3.96 7 6 C6.01 6.33 5.02 6.66 4 7 C0 2.25 0 2.25 0 0 Z " fill="#040212" transform="translate(106,445)"/>
<path d="M0 0 C2.31 1.98 4.62 3.96 7 6 C6.01 6.33 5.02 6.66 4 7 C2 6 2 6 0.875 2.9375 C0.58625 1.968125 0.2975 0.99875 0 0 Z " fill="#0B0B22" transform="translate(311,418)"/>
<path d="M0 0 C1.32 0.99 2.64 1.98 4 3 C3.67 3.66 3.34 4.32 3 5 C1.35 4.67 -0.3 4.34 -2 4 C-1.34 2.68 -0.68 1.36 0 0 Z " fill="#F2F5F6" transform="translate(90,387)"/>
<path d="M0 0 C2.97 0.495 2.97 0.495 6 1 C6 2.65 6 4.3 6 6 C3.97945196 4.35830472 1.97956942 2.69088222 0 1 C0 0.67 0 0.34 0 0 Z " fill="#05061B" transform="translate(308,376)"/>
<path d="M0 0 C0.99 1.32 1.98 2.64 3 4 C2.67 4.66 2.34 5.32 2 6 C1.34 6 0.68 6 0 6 C-0.33 6.66 -0.66 7.32 -1 8 C-1.33 6.68 -1.66 5.36 -2 4 C-1.34 4 -0.68 4 0 4 C-0.33 3.01 -0.66 2.02 -1 1 C-0.67 0.67 -0.34 0.34 0 0 Z " fill="#F4F8FA" transform="translate(331,337)"/>
<path d="M0 0 C0.33 1.32 0.66 2.64 1 4 C0.01 4.495 0.01 4.495 -1 5 C-2.32 3.68 -3.64 2.36 -5 1 C-3 0 -3 0 0 0 Z " fill="#04040C" transform="translate(243,273)"/>
</svg>
